<?xml version="1.0" encoding="utf-8"?>
<!-- Generator: Adobe Illustrator 18.0.0, SVG Export Plug-In . SVG Version: 6.00 Build 0)  -->
<!DOCTYPE svg PUBLIC "-//W3C//DTD SVG 1.1//EN" "http://www.w3.org/Graphics/SVG/1.1/DTD/svg11.dtd">
<svg version="1.1" id="Calque_1" xmlns="http://www.w3.org/2000/svg" xmlns:xlink="http://www.w3.org/1999/xlink" x="0px" y="0px"
	 viewBox="0 0 665.4 512.7" enable-background="new 0 0 665.4 512.7" xml:space="preserve">
<g>
	<path fill="#FFCC33" d="M150.2,354.7c7.3-8.1,14-15.5,20.7-22.8c10.7-11.5,11.4-20.7,1.8-33.3c-11.9-15.6-24.3-30.9-35.5-47
		c-14.5-20.8-26.4-42.9-33.7-67.2c-9.7-32.1-8.9-63.9,6.3-94.3c10.8-21.6,27-38.5,48.8-49.8c28.4-14.8,59-21.5,90.5-24.5
		c38.9-3.7,77.2-0.2,114.6,11.2c23.3,7.1,45.6,16.8,65.7,31c5,3.5,9.7,7.5,13.7,13.1c-4.2,0.4-7.7-0.5-11.1-1.3
		c-3.2-0.7-6.3-0.6-9.3,0.4c-2,0.7-3.8,1.7-4.1,3.9c-0.4,2.4,1.6,3.5,3.3,4.5c7.5,4.4,15.9,4.5,24.2,5.1c6.8,0.5,11.5,4.3,12.4,10.9
		c0.4,2.6-1.3,3.1-3.2,3.5c-4.4,0.8-8.7,1.9-12.9,3.8c-12.9,5.7-18.1,16.8-20.3,29.5c-1.4,8.1-1.1,16.6-1.1,24.9
		c-0.2,27.5-2.3,54.9-2.4,82.4c0,10.5-2,21.2,2.5,31.6c3,6.9,5.9,13.4,13.4,16.5c3.2,1.3,1.1,2.9,0.1,4.2
		c-5.2,6.5-10.3,13.1-15.7,19.4c-12.9,15.3-26.9,29.5-43.6,40.8c-22.7,15.5-46.7,27.7-74.3,31.4c-9.2,1.2-18.3-0.1-27.3-1.9
		c-23.1-4.8-43-15.6-60.3-31.6c-3.5-3.3-7.6-6-11-9.4c-3.3-3.2-6.6-3.1-10.5-1.4c-11.3,4.9-22.6,9.8-34,14.6
		C155.9,353.8,153.9,354.8,150.2,354.7z M343.7,181.9c0.9,17.2-0.7,36.4-1,55.5c-0.4,22-1.3,43.9-1.9,65.9c-0.2,6,0.7,12,1.9,17.8
		c0.4,2,1.6,3.8,3.8,4.2c2.2,0.3,3.1-1.6,4.1-3.1c3.3-4.9,5.9-10.1,6.8-16c3.1-20.2,5.1-40.6,7.3-61c0.9-8.9,2.3-17.5,7.5-25
		c1.4-2,3.2-3.6,5.8-3.1c2.7,0.5,3.6,2.7,4.1,5.1c0.3,1.5,0.5,3,0.6,4.4c0.3,8.7-0.3,17.4-1.6,25.9c-3,20.8-3.3,41.5-0.2,62.2
		c0.7,4.4,1.1,9,4.4,12.5c3,3.2,6.5,3.3,9.4-0.1c1.5-1.8,2.3-4,3-6.3c1.9-6.4,2.3-13.1,2.9-19.7c1.5-15.6,2.5-31.2,3.2-46.8
		c1-23.4,2.5-46.8,3.8-70.3c0.7-11.6,1.8-23.2,2.5-34.8c0.9-15.9,1.8-31.9,2.4-47.9c0.2-6.8-3.5-11.6-8.6-12.4
		c-7.1-1.1-12.1,1.7-13.8,9c-4.9,21-6.9,42.3-5.8,63.9c0.4,8.1,1.1,16.3-0.8,24.4c-1.1,4.6-3.6,7.9-8.6,8.5
		c-6.7,0.8-11.1-3.3-11.2-10.7c-0.5-23,1.4-45.9,3.6-68.8c0.8-8.7,0.5-17.3-1.6-25.8c-1.7-6.7-7.6-8.5-13-4.2
		c-3.1,2.5-4.9,5.8-5.9,9.6c-3,11.3-4.4,22.9-4,34.6C343.5,146.4,344,163.2,343.7,181.9z M309.8,51.1c-13.7-0.4-26.4-0.4-38.8,2.1
		c-7.3,1.4-15,1.9-21.2,6.6c-3.7,2.8-6.8,6.2-5.4,11.4c1.4,5,5.4,7,10,7.8c5.2,0.9,10.6,1.3,15.8,2.1c9.5,1.6,18.6,4.2,23.8,13.5
		c3.8,6.9,6.7,14.1,7.6,22c1.2,10.2,2.7,20.4,3.3,30.8c1.4,24.2,3.6,48.4,4.6,72.7c1,23.6,1.5,47.2,4.2,70.7
		c0.9,7.9,1.2,16,4.9,23.3c1.1,2.1,2.3,4.4,5,4.3c2.8-0.1,3.5-2.8,4.5-4.8c0.5-1,0.9-2.2,1.1-3.3c1.1-6.9,2.2-13.8,2.4-20.8
		c0.3-17.1,0.9-34.2,0.2-51.4c-0.9-20.1-0.2-40.3-0.3-60.5c0-10.5,0.5-21-0.2-31.5c-0.9-14-0.3-27.9,0.5-41.8
		c1-16.8,10.9-26.9,27.4-29.5c4.3-0.7,8.6-1.2,12.8-2c3.9-0.7,6.9-3.1,7.3-7.1c0.4-3.7-2.6-5.6-5.6-6.9c-2.4-1.1-4.9-2.1-7.5-2.6
		C347.3,52.9,328.3,49.8,309.8,51.1z M200.4,135.8c0.6-18.9-9.1-32.2-24.2-41.9c-5.3-3.4-11.8-4.7-18.2-4.3
		c-20.9,1.5-35.6,13.5-47.9,29.2c-2.3,2.9-3.4,6.5-3,10.3c1.1,11.2,3.9,22.1,7.7,32.5c12.7,34.3,25.3,68.7,42.7,101
		c2.8,5.2,5.4,10.7,9.6,15.1c1.2,1.3,2.3,3.2,4.5,2.2c1.8-0.8,2-2.6,2-4.3c0.1-7,0.4-13.9-0.8-20.9c-3.9-23.1-7.6-46.3-11.6-69.4
		c-0.7-3.9,0.5-6.2,3.8-8.2c5.8-3.3,11.3-7.1,16.9-10.6C193.5,159.5,201.1,150.1,200.4,135.8z M258.6,204.2c2.2,4.2,3.1,7.7,4,11.2
		c5.8,21.4,11.5,42.8,18.1,63.9c2,6.4,4.4,12.6,7.7,18.4c1.2,2.1,2.8,4.8,5.5,4.5c3-0.4,3.8-3.6,4.3-6.1c0.8-4.4,1.5-8.9,1.5-13.4
		c0.1-19-0.7-37.9-1.9-56.9c-1.4-23.3-2-46.5-3.3-69.8c-0.6-11.4-1.2-22.9-3.9-34.2c-0.8-3.3-1.9-6.4-3.9-9.1
		c-0.8-1.1-1.5-2.4-3.2-2c-1.5,0.4-2.2,1.6-2.4,3c-0.6,3.6-1.4,7.3-1.3,10.9c0.3,9.3,1.1,18.6,1.8,27.9c1.6,22.9,3.2,45.8,4.8,68.7
		c0.3,4.6,0.4,9.2-1.6,14.3c-2.5-3.2-3.4-6.3-4.3-9.5c-8.1-28.4-13-57.5-20.8-85.9c-2-7.4-4.4-14.6-7-21.8c-0.7-2-1.9-4.9-4.7-4.5
		c-2.6,0.4-2.4,3.3-2.9,5.3c-2.3,10.5-1.9,21.2-2.3,31.8c-1.1,25,0.3,50,1.1,74.9c0.5,15.4,1.1,31,3.7,46.2
		c1.8,10.7,2.2,21.6,5.7,31.9c0.7,2,1.1,4.7,3.9,4.4c2.7-0.3,2.3-2.9,2.4-4.8c0.8-15-0.9-29.9-1.7-44.8c-0.7-13.4-3.1-26.8-2.3-40.3
		C256.1,213.9,256.2,209.4,258.6,204.2z M237.7,229.1c0-2.9,0.3-6.7,0-10.5c-1.5-17-4-33.6-12.8-48.8c-8.5-14.6-22.4-15.9-32.3-2.5
		c-5.2,7-7,15.4-8.7,23.7c-3.8,18.4-2.4,36.7,0.7,55c2.5,14.6,7.2,28.4,15.7,40.6c7.8,11.4,18.5,11,25.8-0.6
		c1.8-2.8,3.6-5.6,4.5-8.9C235,261.8,238.4,246.3,237.7,229.1z"/>
	<path fill="#FFCC33" d="M651.7,150.1c2.3,21.1-5.9,41.1-14.2,61c-8.6,20.7-19,40.4-32.5,58.3c-6.3,8.4-12.8,16.5-21.3,23
		c-13.5,10.4-34.2,7.6-43.9-0.4c-3-2.5-5.1-5.6-6.3-9.4c-4.9-14.6-5.1-29.8-5.9-44.9c-0.6-12-1-23.9-3.9-35.7
		c-1.1-4.6-3.4-7.9-7.7-10.4c-10.6-6.1-21.6-11.2-32.7-16.1c-3.6-1.6-5.1-1.4-5.9,3c-3,16.9-6.1,33.8-11.6,50.1
		c-2.4,7.1-4.7,14.2-7.7,21.1c-1.3,2.9-2.2,4.6-4.6,0.7c-1.4-2.3-3.5-4.1-6-5.1c-10.1-4.3-13.7-12.5-13.7-22.8c0-5-0.2-10,0-15
		c0.3-7.9,4.7-13.2,12.5-14.6c5.2-1,9.9-2.8,14.4-5.3c8.5-4.7,9-11.7,0.9-16.9c-4-2.6-8.5-4.5-12.9-6.6c-4.6-2.2-7.3-5.3-7.2-10.8
		c0.2-6.7,1-13.3,2.8-19.7c2.1-7.9,17-12,23.2-6.7c1.3,1.2,1.7,2.8,2.1,4.4c2.3,11.4,4.8,22.8,7,34.2c0.8,4,2.6,5.7,6.7,5.5
		c7-0.3,14-0.5,20.9,0c6.4,0.4,10.2-2.4,13.2-7.7c10-17.7,20.4-35.1,32.3-51.6c7.3-10.2,14.9-20.3,27-25.3
		c29.1-12.1,57.7-2.8,70,28.2C651.3,125.8,652.3,137.2,651.7,150.1z M565.6,216.6c0.1,8.7-0.4,17.3,1.7,25.8c0.5,2,0.9,4,3.1,4.7
		c2.5,0.9,3.7-1.1,5-2.4c6.7-6.9,10.1-16,14.5-24.3c9.8-18.3,17.2-37.9,26.3-56.6c6-12.3,9-25.3,10.3-38.8c1-11.4-3-17.7-13.6-22
		c-3.1-1.3-6.3-1.9-9.7-2.3c-8.7-1.1-15.2,1.9-19.7,9.5c-1.6,2.7-2.9,5.6-4,8.6c-4.4,11.7-7.7,23.7-10,36
		C565.9,175.3,566.6,196,565.6,216.6z M578.7,272c0-7.5-5.8-12.9-14-12.9c-8,0-15.5,8.2-15.6,17c-0.1,5.9,9.4,13.9,16.3,13.7
		C571.5,289.6,578.7,280,578.7,272z"/>
	<path d="M23,397.5c-5.9,5.6-6.6,12.3-5.4,19.8c-3.2-2.8-4.3-5.7-2.9-12.2c1.3-6.3,3.1-12.5,6.7-18.1c7.3-11.2,24.9-13.9,31.8,2.1
		c2,4.6,7.3,5.5,10.4,9c0.7,0.8,1.9,0,2.8-0.5c5.4-3,11.4-4.5,17.3-6.2c5.9-1.7,10.1-5.3,13-10.8c3.2-6,6.5-12,12.3-16.1
		c0.7-0.5,2.2-0.8,0.9-2.6c-4.4-5.8-3.9-7,2.8-8.8c7.6-2.1,16.4,2.8,17.9,11.2c0.2,1.3,4,4.7,3.9,6.5c0,1.1-3.9,0.6-3.8,1.7
		c0.2,3.9-2.1,6.1-5.6,7.3c-2,0.7-1.9,2-1,3.6c6.9,11.3,2.4,22.2-1.3,33c-1.1,3.2-4,5.3-6.4,7.6c-3.6,3.4-7.8,6-9.6,11.2
		c-0.9,2.6-4.3,2.8-6.5,4.2c-1.5,1-3.6,1.7-4,3.6c-1.2,5.4-5,9.3-7.9,13.7c-3.1,4.7-2.3,19.1,1.3,23.5c2,2.5,5,1,7.5,1.4
		c0.9,0.2,2.3-0.3,2.6,0.8c0.1,0.6-1,1.4-1.6,2.2c1.3,0,2.7-0.1,4,0c1.3,0.2,4-0.5,3.3,1.5c-0.4,1.2-0.4,4.4-3.5,4.1
		c-2-0.2-4.1,0.3-6-0.1c-4.5-0.9-8.8-0.8-13,1.4c-1.1,0.5-2.4,0.9-3.3-0.1c-1-1.1,0.5-1.6,0.9-2.3c1.6-2.3-1-2.2-2-2.7
		c-0.4-0.2-1.4,0.6-2.2,0.9c-1.6,0.6-3.2,1.9-5,0.4c2.1-1.9-3.5-4.8,1.2-6.8c4-1.7,4.5-5.5,3.1-9.8c-1.9-5.8-4.8-11.3-5.5-17.5
		c-0.1-0.7-0.8-1.6-1.4-1.9c-5.3-2.6-8.8-7.4-13.5-10.8c-7.4-5.3-13.7-11.9-16.2-21.2c-0.9-3.4-4.1-5.6-5-9.1
		c-0.4-1.5-1.8-1.1-3-0.7c-2.6,0.8-4.7,0.7-4.9-2.8c0-0.4-0.6-1.2-0.8-1.2c-6,1.1-1.6-2.8-2-4.3C23.2,400.5,24.7,399.4,23,397.5z"/>
	<path d="M269.4,436.8c0-3.2,0.5-6.4-0.1-9.5c-0.7-3.5,0.8-3.9,3.5-3.7c2.1,0.2,4.4-0.1,6.4,0.4c4.9,1.2,5.9,3.3,3.7,7.9
		c-0.7,1.5-1,2.1,0.6,3.1c2.7,1.5,4.3,3.9,3.3,7.1c-1.1,3.4-4,4.9-7.3,5c-3.4,0.1-8,1.7-10-0.8c-1.6-2-0.3-6.3-0.3-9.6
		C269.2,436.8,269.3,436.8,269.4,436.8z M273.1,439.9c0.1,4.4,1.1,5.7,4.4,5.7c3,0.1,5.4-1,5.6-4.3c0.2-2.9-3.8-6.1-6.9-6
		C273,435.4,273.1,437.7,273.1,439.9z"/>
	<path d="M353.4,422.8c3,0.6,6.2,0.8,9,2.3c6.3,3.3,8.1,10.5,4.1,16.6c-5.6,8.4-21.4,8.3-26.8-0.2c-3.3-5.2-1.7-12.3,3.7-15.7
		C346.4,423.9,349.8,423.3,353.4,422.8z M354.2,445.6c6,0,9.9-3.7,10.1-9.3c0.2-6.4-4.6-11.1-11.4-11.1c-6.5,0-10.5,3.5-10.7,9.2
		C342.1,441.1,347,445.7,354.2,445.6z"/>
	<path d="M441.9,429.5c0.7,6.4-1.3,12,2.1,17.4c-3.3,0.6-5.7,1.2-4.9-3.9c0.8-4.7,0.1-9.6,0.2-14.4c0-1.4-0.6-3.3,0.9-4.2
		c1.7-1,2.7,0.8,3.7,1.7c5.8,4.9,11.5,9.9,17.6,15.2c1.7-5.4,0.1-10.3-0.5-15.1c-0.3-2.1-0.1-2.8,1.9-2.7c1.3,0.1,2.4-0.1,2.3,2.1
		c-0.4,5.6-0.2,11.3-0.4,16.9c0,1.3,0.4,2.9-0.9,3.7c-1.6,0.9-2.8-0.5-3.9-1.4C454.4,440.1,448.6,435.2,441.9,429.5z"/>
	<path d="M203.6,441.4c0,3.7-1.4,5.4-4.5,6.1c-5.9,1.4-11.6,0.5-17-1.8c-5.5-2.3-8.4-7-8.5-13c0-5.3,4.8-11.1,10.3-12.8
		c5.7-1.8,11.4-1.5,17.2-0.3c1.5,0.3,2.5,1,2.6,2.5c0.1,1,0.2,2.2-0.9,2.6c-1.5,0.6-1.7-1.2-2.6-1.8c-3.9-2.5-14-2.4-17.7,0.3
		c-5.9,4.2-5.7,13.8,0.2,18.6C189.1,446.9,197.1,446.8,203.6,441.4z"/>
	<path d="M470.8,447c4.5-6.5,7-13.3,10.2-19.8c0.6-1.2,1-2.8,2.3-3c1.9-0.2,2.1,1.7,2.8,3c3.6,6.3,5.8,13.3,10.4,19.1
		c-4.5,1.6-5,1.6-6.6-2.5c-1.5-4-4.2-4.8-8.2-4.7c-3.8,0.1-5,2.5-5.4,5.3C475.9,448,473.7,447.2,470.8,447z"/>
	<path d="M434.1,446.7c-5.3,1.4-7.9-1.5-10.6-4.1c-0.4-0.3-0.7-0.7-1.1-1.1c-2.1-2-4-5.9-7.2-3.5c-2.7,2-1.2,5.7,0.1,8.6
		c-6.1,1.3-6.1,1.2-5.3-4.9c0.6-5.1,1.1-10.3-0.5-15.3c-0.4-1.4-0.9-2.7,1.3-2.7c3.8,0.1,7.6-0.6,11.4,0.6c4.9,1.6,6.5,5.2,3.4,9.1
		c-2.8,3.4-1.4,5.2,1.1,7.3c1.2,1,2.3,2,3.4,2.9C431.2,444.5,432.4,445.4,434.1,446.7z M414.2,429.8c-0.3,3.6-0.1,6,3.9,5.9
		c3.5-0.1,4.9-2.1,4.8-5c-0.1-3.5-2.6-5.3-6-5.3C413,425.4,414.4,428.5,414.2,429.8z"/>
	<path d="M500.4,435.3c0-5.6,3-9.6,8.8-11.3c4.9-1.4,9.8-1.4,14.8-0.4c1.2,0.3,2.3,0.7,2.5,2c0.1,0.6,0,1.5-0.4,1.8
		c-1.4,1.3-1.9-0.6-2.8-1c-7.5-4.1-16.8-1.1-18.5,6.1c-1,4.4,1,7.8,4.3,10.4c3.5,2.8,7.7,3.4,11.8,2.1c2.4-0.7,1.4-3.4,1.6-5.3
		c0.2-1.7-1.1-4.4,2.4-4.2c3.5,0.1,1.6,2.6,1.5,4c-0.7,7.3-3.8,9.6-11.3,8.3c-2.9-0.5-5.9-0.9-8.6-2.4
		C502.3,443.2,500.3,439.9,500.4,435.3z"/>
	<path d="M395.7,433c-0.2-2.5-0.3-5-0.6-7.4c-0.3-2.4,1.4-1.8,2.5-1.8c1,0,2.2-0.3,2,1.8c-0.4,4.3-0.3,8.6-0.6,12.9
		c-0.5,5.9-4.8,9.5-11.3,9.7c-6.1,0.2-10.6-3-11.4-8.7c-0.7-4.6-0.7-9.3-1.2-13.9c-0.3-2.8,1.8-1.8,2.9-1.9c1.4-0.1,2.8-0.3,2.4,2.3
		c-0.6,3.7-0.4,7.6-0.3,11.5c0.1,5.6,2.7,8.2,7.8,8.2c5.5,0,7.4-2.1,7.6-8.2c0-1.5,0-3,0-4.5C395.5,433,395.6,433,395.7,433z"/>
	<path d="M254.5,424c3.1-0.8,5.1-0.6,4.6,3.6c-0.5,4.3,0.2,8.6-1,12.9c-1.4,5-6.6,8.3-12.4,7.6c-6.8-0.8-10-3.8-10.2-9.9
		c-0.1-3.8,0.1-7.7-0.2-11.4c-0.2-1.9-0.6-3.1,2-3.1c2.5,0,3.2,1,2.8,3.4c-0.8,4.3-1,8.5-0.1,12.8c0.9,3.9,3.1,5.6,6.9,5.8
		c4,0.2,7.3-1.2,8.1-5.1C255.9,435.2,256,429.7,254.5,424z"/>
	<path d="M552.5,444.2c0.1,2.4-1.2,3-2.8,3c-3.7,0.1-7.8,1.1-10.8-0.3c-3.8-1.8-0.7-6.3-1.2-9.6c-0.5-3.6,0.1-7.3-0.5-10.9
		c-0.4-2.7,0.7-2.8,2.6-2.8c2.8,0,5.7-0.1,8.5,0.1c1.3,0.1,3.6-0.5,3.1,1.9c-0.4,1.9-2.2,0.6-3.4,0.3c-5.2-1.2-6.6,0-5.9,5
		c0.4,3.3,2.8,2.6,4.8,2.8c1.5,0.2,4-0.6,3.8,1.9c-0.2,2.7-2.4,0.7-3.5,0.6c-3.4-0.2-5.3,0.5-5.2,4.5c0,4.2,1.9,5.4,5.5,4.8
		C549.1,445.3,550.6,444.7,552.5,444.2z"/>
	<path d="M324.4,447c-1.7,0.1-3,0.2-4.3,0.3c-2.5,0.2-3.3-0.1-2.5-3.3c1.7-6.6,1.2-13.6,0.4-20.3c-0.5-4.3-4.8-2-7.5-2.2
		c-1.2-0.1-2.3,1.5-3.6,0.4c-0.2-0.2-0.3-1-0.1-1.4c0.8-1.4,2.2-1.1,3.5-1.1c6.3,0.1,12.6,0.1,18.9,0.2c1.3,0,2.7,0.1,3.9,0.6
		c0.8,0.3,0.9,1.4,0.5,2.2c-0.4,0.9-1,0.4-1.6,0.2c-0.8-0.3-1.6-0.6-2.4-0.8c-6.1-1.6-7.8-0.5-7.6,5.6
		C322.4,433.9,320.7,440.6,324.4,447z"/>
	<path d="M220.4,447.2c-7,0-7,0-7-6.9c0-4.8-0.1-9.6-0.3-14.4c0-0.7-0.9-1.8,0.3-2c1.2-0.3,2.7-0.2,3.9,0.1c1.1,0.3,0.5,1.3,0.3,2.1
		c-1.1,4.1-0.5,8.3-0.5,12.4c0,6.6,2.4,8.4,8.7,6.8c0.9-0.2,2.3-2.5,2.9,0c0.4,1.7-1.6,1.8-2.9,1.8
		C224,447.3,222.2,447.2,220.4,447.2z"/>
	<path fill="#FFCC33" d="M168.7,137.8c0.1,8.4-8.1,16.9-15.6,17.1c-1.8,0.1-3.5-0.3-4.5-1.7c-5.3-7.1-8.9-14.9-7.2-24.1
		c0.9-4.7,2.7-9.3,8-10.4c5.7-1.1,10.6,1.4,14.1,5.7C166.7,128.5,168.5,133.4,168.7,137.8z"/>
	<path fill="#FFCC33" d="M193.7,216.1c0.5-11,0.5-22,6-32.1c2.1-3.9,4.5-7.5,9.8-7.1c5.2,0.4,7.5,4.2,9,8.3c4.6,13.2,5.9,27,5,40.8
		c-0.6,8.9-0.5,18-2.6,26.8c-1,4.4-2,8.7-3.8,12.9c-1.5,3.3-3.9,5.6-7.5,5.8c-3.4,0.2-5.4-2.5-6.7-5.2c-3.5-7.2-5.3-15.1-6.7-23
		C194.6,234.5,193.3,225.3,193.7,216.1z"/>
</g>
</svg>
