<?xml version="1.0" encoding="utf-8"?>
<!-- Generator: Adobe Illustrator 18.0.0, SVG Export Plug-In . SVG Version: 6.00 Build 0)  -->
<!DOCTYPE svg PUBLIC "-//W3C//DTD SVG 1.1//EN" "http://www.w3.org/Graphics/SVG/1.1/DTD/svg11.dtd">
<svg version="1.1" xmlns="http://www.w3.org/2000/svg" xmlns:xlink="http://www.w3.org/1999/xlink" x="0px" y="0px"
	 viewBox="0 0 841.9 595.3" enable-background="new 0 0 841.9 595.3" xml:space="preserve">
<g id="Calque_1">
	<g>
		<path fill="#FFCD33" d="M94.8,527c10.7-11.7,20.4-22.6,30.2-33.2c16.6-18,17.5-31.2,2.5-50.7c-16.1-20.7-32.4-41.3-47.7-62.6
			c-23.7-33-43.3-68.2-54.9-107.2c-14.1-47.5-12.9-94.6,9.7-139.5c16.4-32.6,40.9-57.8,73.9-74.6c41.7-21.3,86.4-31.2,132.5-35.6
			c57.8-5.5,114.7-0.4,170.3,16.5c35.4,10.7,69.2,25.4,99.5,47.2c6.7,4.8,13.6,9.7,17.8,17.8c-5.8,1.4-10.7-0.4-15.7-1.2
			c-9.2-1.6-17.1,0.8-18.3,5.7c-1.2,4.6,5.3,10.1,14.8,12c9,1.9,18,3.1,27.2,3.2c7.7,0.1,16.3,9.3,16.2,17c-0.1,3.5-2.6,3.8-5,4.3
			c-6.6,1.3-13,2.9-19.2,5.7c-19.5,8.9-28.6,25.8-29.9,45.4c-2.4,35-1.5,70.3-3.7,105.3c-1.6,25.7-1.1,51.5-1.8,77.2
			c-0.5,18.3,4.3,36.7,23.5,46.3c4.8,2.4,2,4.7,0.3,6.9c-10.6,13-21.1,26.2-32.1,38.9c-34.9,40.3-77.6,69.2-127.5,88
			c-41.6,15.6-81.6,10.3-121-7.6c-22.2-10.1-40-26.3-58.2-41.9c-1.9-1.6-4.1-2.9-5.7-4.7c-5.1-5.7-10.5-4.8-16.8-2
			c-16.5,7.3-33.2,14.3-49.8,21.4C102.9,526,100,527.5,94.8,527z M382.3,267.7c1,36.9-2.3,74.5-1.6,112.1c0,1.5-0.2,3-0.3,4.4
			c-1.4,23.5-3.2,46.9-2.4,70.4c0.2,7.2,1.1,14.3,2.1,21.4c0.5,3.4,2.1,6.9,6.2,7.5c3.6,0.5,4.9-2.7,6.6-5.1
			c4.7-7.1,8.6-14.7,9.7-23.1c3.8-29.9,7.5-59.9,10.8-89.9c1.5-13.4,3.2-26.5,11.1-38c2.1-3,4.7-5.3,8.6-4.7c4.1,0.7,5.3,4,6.1,7.5
			c1.9,8.6,1.3,17.3,0.5,25.9c-2.9,32.5-8.2,64.9-3.8,97.6c1.5,11.1,0.7,22.9,8.6,32.4c3.8,4.6,8.2,5.2,12.6,1
			c2.8-2.6,4.1-6.1,5.2-9.7c2.8-9.3,3.8-18.9,4.5-28.5c1.8-24.2,3.9-48.3,4.9-72.5c1.4-34.3,3.6-68.6,5.6-103c1.1-19,2.8-38,3.9-57
			c1.3-22,2.7-43.9,3.4-65.9c0.4-10.9-5.7-17.7-14.4-18.4c-10.3-0.8-17.3,5.1-19.6,15.9c-3.2,15-6.2,30.1-6.8,45.5
			c-0.7,16.3-3.2,32.4-1.2,48.9c1.4,11.4,1.7,23.3-1.3,34.7c-2.7,10.5-10.1,14.4-20.3,11.4c-7.9-2.3-8.9-8.3-9.1-15
			c-1-34.2,2.1-68.2,5.4-102.2c1.2-12.9,0.7-25.7-2.4-38.4c-2.3-9.6-11.1-12.5-18.7-6.6c-4.9,3.8-7.8,8.8-9.3,14.7
			c-4.5,17.1-6.5,34.6-5.8,52.2C382,217.9,382.7,242.4,382.3,267.7z M335.2,75.7c-19.6,0.1-34.5-0.3-49.3,1.6
			c-14,1.8-28,3.8-40.8,10.1c-8.1,4-11.8,11.3-10.6,17.9c1.1,6.1,7.2,11,16,12.2c8.1,1.2,16.3,1.6,24.3,3.1
			c13.6,2.5,26.5,6.8,33.8,20c5.3,9.6,9.5,19.7,11,30.6c7,50.5,9,101.4,11.9,152.3c1.8,31.8,1.7,63.8,4.9,95.5
			c1.5,14.7,2.3,29.7,7.2,43.8c1.6,4.5,3.8,10,8.8,9.9c5.8,0,7.3-6.1,8.2-10.9c2.1-10.2,3.5-20.5,3.7-30.9c0.5-25.9,1-51.9,0.2-77.8
			c-1-31.7-0.3-63.4-0.3-95.1c0-13.6,0.8-27.3-0.4-40.8c-1.7-20.8-0.3-41.5,0.8-62.1c1.3-25,16.2-39.9,40.6-43.7
			c6.1-1,12.2-1.9,18.3-2.9c6.2-1,10.9-4.4,11.7-10.7c0.7-5.8-4.1-8.6-8.9-10.5c-3.9-1.5-7.9-2.9-12-3.7
			C386.7,78.1,358.8,74.3,335.2,75.7z M169.4,201.7c0.2-18.9-6.4-34.8-19.3-48.5c-13.8-14.7-29.9-22.4-50.3-19.3
			c-28.3,4.3-48.4,21.1-65.1,43c-2.5,3.3-4.3,7.4-3.9,11.8c0.9,9.8,1.9,19.6,4.7,29.2c6.2,21.7,14.3,42.6,22.2,63.7
			c14.1,37.8,30,74.8,48.8,110.5c3.8,7.1,7.3,14.7,13.2,20.5c1.6,1.6,3.3,3.3,5.8,2.5c2.8-0.8,3.7-3.1,3.9-5.7
			c0.2-2.2,0.1-4.5,0.3-6.7c1.3-19.6-4.3-38.3-7-57.4c-3.3-23.5-7.5-46.9-11.6-70.3c-1-5.4,0.5-8.9,5.3-11.7
			c8.7-5.1,17.2-10.8,25.8-16.1C159.3,237,169.9,222.5,169.4,201.7z M255.9,303.3c1.8,3.9,3.1,6.1,3.7,8.4
			c5.9,21.2,11.6,42.5,17.4,63.7c6,22.2,11.7,44.5,22.1,65.3c1.9,3.8,4.3,8,9.1,7.5c5.1-0.5,5.7-5.5,6.8-9.6c0.3-0.9,0.3-2,0.4-2.9
			c3.6-30.9,0.5-61.8-0.6-92.7c-1.3-35.3-3.7-70.6-5.4-105.9c-0.8-16.8-1.7-33.6-4.7-50.2c-1.2-6.6-2.5-13.2-6.4-18.9
			c-1.2-1.7-2.4-4.2-5.1-3.7c-2.9,0.5-3.8,3.1-4.2,5.6c-1.3,8.6-2.3,17.1-1.3,25.9c1.1,9.8,1.6,19.7,2.3,29.6
			c2.4,33.5,4.7,67.1,7.1,100.6c0.5,7.7,0.7,15.3-2.3,23.4c-4-4.5-5-9.1-6.3-13.6c-9-30.9-15.1-62.5-22.5-93.8
			c-5-21.2-10.3-42.3-17.2-63c-1.4-4.3-3.1-10.5-8.4-10c-5.2,0.5-4.6,7.1-5,11.2c-1.4,16-2.7,32-3.1,48.1c-0.5,25.2,0.3,50.5,1,75.7
			c1.1,42.6,3.3,85,10.1,127.1c1.2,7.4,2.5,14.6,5.1,21.6c0.9,2.4,2.1,4.7,5.1,4.5c3.3-0.3,3.5-3,3.7-5.5
			c1.1-12.9-0.1-25.7-0.6-38.5c-1-28.9-5.8-57.6-5.4-86.6C251.7,319.3,252.4,312,255.9,303.3z M224.7,339.4
			c1.2-20.5-2.6-42.2-8.8-63.4c-3.6-12.3-8.5-24.5-18.4-33.4c-13.4-12.1-25.8-9.5-35.1-0.4c-7,6.9-11.3,16.1-14,25.8
			c-12,42.6-8.7,84.8,4.7,126.3c4.6,14.2,10.4,28.4,22.3,38.8c8.6,7.5,20.2,6.9,27.5-2c4.6-5.6,8.6-11.6,10.7-18.5
			C220.8,389.4,225.5,365.7,224.7,339.4z"/>
		<path fill="#FFCD33" d="M840.2,224.8c3.2,29.9-9,59.6-21.3,89.1c-12.8,30.7-28.1,60.1-48.3,86.7c-9.4,12.4-19.1,24.5-31.7,34.2
			c-19.7,15.1-49.6,11.4-64,0.1c-5.3-4.1-8.6-9.2-10.7-15.6c-7.1-21.5-7.3-43.8-8.5-66c-1-17.5-1.5-35.1-5.6-52.3
			c-1.7-7.1-4.9-12.3-11.7-16.1c-16-9-32.5-16.8-49.3-24.2c-4.9-2.2-6.8-1.3-7.8,4.3c-4.7,25.5-9.1,51.2-17.6,75.9
			c-3.6,10.5-7,21.1-11.6,31.3c-1.7,3.8-3.1,4.8-5.9,0.8c-2.7-3.9-6.3-7-10.7-8.9c-14.1-6.2-19-17.9-19.2-32.3
			c-0.1-7.4-0.2-14.9,0-22.3c0.4-12.6,6.8-20.2,19.3-22.8c9.3-1.9,18.1-4.9,25.2-11.6c7.8-7.3,7.7-13-0.6-19.5
			c-6.3-4.9-13.7-8-20.9-11.2c-7.6-3.4-11.6-8.4-11.3-17.2c0.3-9.2,2.1-18.2,3.6-27.2c1-6.4,4.7-10,10.5-12.2
			c6.2-2.3,12.6-2.4,19-1.4c5,0.7,7.6,3.7,8.6,8.8c3.4,17,7.1,33.9,10.4,50.9c1.1,5.9,3.7,8.5,9.9,8.2c10.6-0.4,21.3-0.7,31.9-0.1
			c9.4,0.6,14.6-3.9,18.9-11.4c14.9-26.3,30.4-52.2,48.1-76.7c10.9-15.1,22.1-30.1,40.1-37.6c43.3-18,86.1-4.1,103.9,41.9
			c2.2,5.8,4.4,11.6,5.6,17.7C840.5,199.2,840.3,210.3,840.2,224.8z M712.1,323.8c0.1,12.6-0.5,25.3,2.9,37.7
			c1.9,7.1,5.6,7.9,11.1,3c7.5-6.6,11.1-15.8,15.7-24.2c15.4-28,27.3-57.6,40.8-86.6c9.3-20,17.3-40.3,19.6-62.6
			c1.8-18-1.4-32.7-23.2-39.5c-20.3-6.2-34.5-1-43.2,18.4c-8.5,19.1-13.6,39.3-17.5,59.7C712.4,260.9,714,292.5,712.1,323.8z
			 M731.6,404c-0.1-11.2-8.8-19-21.1-18.9c-11.8,0.1-23,12.6-22.9,25.5c0.1,8.5,13.6,19.9,23.7,20
			C720.6,430.8,731.7,416.3,731.6,404z"/>
		<path fill="#FFCD33" d="M80.7,197.8c-0.1-10.7,5.2-19.5,12.7-21.4c8.8-2.2,19.4,3.8,24,13.5c9.1,19.3,4.7,31.9-13.4,39.1
			c-6.3,2.5-10.9,1.2-14.5-4.7C84.4,215.9,80.8,205.3,80.7,197.8z"/>
		<path fill="#FFCD33" d="M159.3,321.6c0.9-16.7,0.7-33.7,9.3-48.9c3.4-5.9,7.4-10.9,15.1-9.5c7.1,1.3,10.7,6.6,12.7,13
			c7,22.2,8.6,44.9,6.6,68c-1.1,12.6-1.5,25.1-4.5,37.5c-1.2,5.1-2.8,10-5.2,14.7c-5,9.6-14,10.1-19.6,1
			c-6.6-10.7-9.2-22.9-10.8-35.1C161.2,348.7,158.5,335.3,159.3,321.6z"/>
	</g>
</g>
<g id="Vector" display="none">
	<g id="_x21_" display="inline">
		<path fill="#FFC428" d="M644.9,289.7c-11.1-13.1-68.9-35.4-68.9-35.4s50.8,2.4,56.4-3.1c17-16.5,47-97.5,90.1-121.9
			c34.6-19.6,73.2-11.1,96,17C843.3,176.8,840,243,834.3,263c-16.5,57-51.6,131.4-93.3,166.8c-28.3,24-69.4,17.7-79.8-16.5
			C651.5,381,655.8,302.5,644.9,289.7z"/>
		<path fill="#FFFFFF" d="M684.4,413.7c-4.2-11.8,7.6-25.8,14.4-30.2c7.4-4.8,25.2-0.5,30.2,6.4c5.3,7.3,4.4,28.9-8.4,37.1
			C704.8,437,687.8,423,684.4,413.7z"/>
		<path fill="#FFFFFF" d="M717.3,368.9c-14.5,1.6-4.5-129.1-3.7-136.1c1.4-12.4,17.7-71.1,27.5-78.8c10.5-8.3,15.8-9.1,31.8-6.3
			c14.3,2.5,28.1,15.9,29.3,21.7c1.8,8.3,1.6,37.7-19.2,84C767.2,288.9,735.1,367,717.3,368.9z"/>
	</g>
	<g id="Ponthé_-_copie">
		<path display="inline" fill="#FFC428" d="M91.7,528c0,0,37-40.3,42.7-48.7c4.8-7.3,3.6-25.7-8.2-38.1
			C87.3,400.2,35,328.8,17.3,247.5c-7.3-33.2-2.8-86.8,18-119C60,90.2,89.8,63.3,123.3,49.3c54.9-22.9,124.2-31.6,185.3-28
			c50.8,3,126.8,19.2,175.3,48.3c24,14.5,53.5,34.5,66,68.3c10.4,28.1,29.6,103,29.3,117.7c-0.9,55.6-27.7,125.7-60.1,170.6
			c-7.1,9.9-55.3,72.8-102.5,101.5c-33.5,20.4-91,53.9-155.5,33c-62.9-20.4-89.4-61.8-96.6-61.7C153.2,499.1,91.7,528,91.7,528z"/>
	</g>
	<g id="Ponthé" display="inline">
		<path fill="#FFC428" d="M91.7,528c0,0,37-40.3,42.7-48.7c4.8-7.3,3.6-25.7-8.2-38.1C87.3,400.2,35,328.8,17.3,247.5
			c-7.3-33.2-2.8-86.8,18-119C60,90.2,89.8,63.3,123.3,49.3c54.9-22.9,124.2-31.6,185.3-28c50.8,3,126.8,19.2,175.3,48.3
			c24,14.5,53.5,34.5,66,68.3c10.4,28.1,29.6,103,29.3,117.7c-0.9,55.6-27.7,125.7-60.1,170.6c-7.1,9.9-55.3,72.8-102.5,101.5
			c-33.5,20.4-91,53.9-155.5,33c-62.9-20.4-89.4-61.8-96.6-61.7C153.2,499.1,91.7,528,91.7,528z"/>
		<path fill="#FFFFFF" d="M489.3,108.8c-0.3-3.2,2.2-6.8,9.4-8.1c21.9-3.8,49.7,13.1,53.1,14.5c24.5,9.6-25.9,11.7-48.6,5.3
			C493.6,117.8,489.8,113.7,489.3,108.8z"/>
		<path fill="#FFFFFF" d="M340.4,461.6c-16.6-38.1-15.2-278.3-29.4-311.3c-17.6-40.9-55.1-26.9-68.5-33
			c-22.7-10.4-7.5-31.1,2.1-35.1c48-20,164.4-6.8,182,1.5c11.6,5.5,14.4,16.5,2.3,22.6c-11.6,5.9-46.6,3.6-59.4,27.8
			c-17.3,32.7,3.1,304.1-7.9,327.1C349.3,487.1,343.8,469.6,340.4,461.6z"/>
		<path fill="#FFFFFF" d="M566.9,264c0.5,11.9-18.4,20.3-34.6,22.7c-7.1,1.1-10.2,6.1-11.9,8.6c-5.6,8-7.1,34.7-1.1,52.7
			c4.7,14.2,33,13.4,27.6,31.8c-3.2,10.9-10.1,43.4-21.8,47.3c-16.4,5.5-27.6-17.1-30.4-23.1c-3.5-7.4-4.5-11.7-4.5-28.6
			c0-49.5,2.4-123.9,4.8-173.5c0.6-13.3,3.5-25.4,9.7-35.5c10.2-16.8,37.3-26.5,63-22.3c9.4,1.5,18,30.3,21.4,39.3
			c4.2,10.9-46.6-3.1-54.8,8.9c-6.9,10.1-8.3,35.4-6,41.8C530.5,240.4,566.3,249.7,566.9,264z"/>
	</g>
</g>
</svg>
