<svg xmlns="http://www.w3.org/2000/svg" xmlns:xlink="http://www.w3.org/1999/xlink" style="margin:auto;display:block;" width="217px" height="217px" viewBox="0 0 100 100" preserveAspectRatio="xMidYMid">
<g transform="translate(50 50)"> <g transform="translate(-17 -17) scale(0.5)"> <g transform="rotate(39.6153)">
<animateTransform attributeName="transform" type="rotate" values="0;45" keyTimes="0;1" dur="0.5714285714285714s" begin="0s" repeatCount="indefinite"></animateTransform><path d="M37.43995192304605 -6.5 L51.43995192304605 -6.5 L51.43995192304605 6.5 L37.43995192304605 6.5 A38 38 0 0 1 31.070237969796747 21.87784981437163 L31.070237969796747 21.87784981437163 L40.96973290640841 31.777344750983293 L31.777344750983296 40.96973290640841 L21.87784981437163 31.070237969796743 A38 38 0 0 1 6.5 37.43995192304605 L6.5 37.43995192304605 L6.500000000000001 51.43995192304605 L-6.499999999999995 51.43995192304606 L-6.499999999999996 37.43995192304606 A38 38 0 0 1 -21.877849814371626 31.070237969796747 L-21.877849814371626 31.070237969796747 L-31.77734475098329 40.96973290640841 L-40.96973290640841 31.777344750983296 L-31.070237969796743 21.87784981437163 A38 38 0 0 1 -37.43995192304605 6.5000000000000036 L-37.43995192304605 6.5000000000000036 L-51.43995192304605 6.500000000000005 L-51.43995192304606 -6.499999999999992 L-37.43995192304606 -6.499999999999994 A38 38 0 0 1 -31.070237969796747 -21.877849814371626 L-31.070237969796747 -21.877849814371626 L-40.96973290640841 -31.77734475098329 L-31.7773447509833 -40.96973290640841 L-21.877849814371633 -31.070237969796743 A38 38 0 0 1 -6.500000000000005 -37.43995192304605 L-6.500000000000005 -37.43995192304605 L-6.500000000000008 -51.43995192304605 L6.499999999999989 -51.43995192304606 L6.499999999999992 -37.43995192304606 A38 38 0 0 1 21.877849814371622 -31.07023796979675 L21.877849814371622 -31.07023796979675 L31.777344750983286 -40.96973290640842 L40.9697329064084 -31.7773447509833 L31.07023796979674 -21.877849814371633 A38 38 0 0 1 37.43995192304605 -6.500000000000007 M0 -19A19 19 0 1 0 0 19 A19 19 0 1 0 0 -19" fill="#ffffff"></path></g></g> <g transform="translate(0 22) scale(0.4)"> <g transform="rotate(27.8847)">
<animateTransform attributeName="transform" type="rotate" values="45;0" keyTimes="0;1" dur="0.5714285714285714s" begin="-0.2857142857142857s" repeatCount="indefinite"></animateTransform><path d="M37.43995192304605 -6.5 L51.43995192304605 -6.5 L51.43995192304605 6.5 L37.43995192304605 6.5 A38 38 0 0 1 31.070237969796747 21.87784981437163 L31.070237969796747 21.87784981437163 L40.96973290640841 31.777344750983293 L31.777344750983296 40.96973290640841 L21.87784981437163 31.070237969796743 A38 38 0 0 1 6.5 37.43995192304605 L6.5 37.43995192304605 L6.500000000000001 51.43995192304605 L-6.499999999999995 51.43995192304606 L-6.499999999999996 37.43995192304606 A38 38 0 0 1 -21.877849814371626 31.070237969796747 L-21.877849814371626 31.070237969796747 L-31.77734475098329 40.96973290640841 L-40.96973290640841 31.777344750983296 L-31.070237969796743 21.87784981437163 A38 38 0 0 1 -37.43995192304605 6.5000000000000036 L-37.43995192304605 6.5000000000000036 L-51.43995192304605 6.500000000000005 L-51.43995192304606 -6.499999999999992 L-37.43995192304606 -6.499999999999994 A38 38 0 0 1 -31.070237969796747 -21.877849814371626 L-31.070237969796747 -21.877849814371626 L-40.96973290640841 -31.77734475098329 L-31.7773447509833 -40.96973290640841 L-21.877849814371633 -31.070237969796743 A38 38 0 0 1 -6.500000000000005 -37.43995192304605 L-6.500000000000005 -37.43995192304605 L-6.500000000000008 -51.43995192304605 L6.499999999999989 -51.43995192304606 L6.499999999999992 -37.43995192304606 A38 38 0 0 1 21.877849814371622 -31.07023796979675 L21.877849814371622 -31.07023796979675 L31.777344750983286 -40.96973290640842 L40.9697329064084 -31.7773447509833 L31.07023796979674 -21.877849814371633 A38 38 0 0 1 37.43995192304605 -6.500000000000007 M0 -19A19 19 0 1 0 0 19 A19 19 0 1 0 0 -19" fill="#ffffff"></path></g></g> <g transform="translate(28 4) scale(0.3)"> <g transform="rotate(17.1153)">
<animateTransform attributeName="transform" type="rotate" values="0;45" keyTimes="0;1" dur="0.5714285714285714s" begin="-0.2857142857142857s" repeatCount="indefinite"></animateTransform><path d="M37.43995192304605 -6.5 L51.43995192304605 -6.5 L51.43995192304605 6.5 L37.43995192304605 6.5 A38 38 0 0 1 31.070237969796747 21.87784981437163 L31.070237969796747 21.87784981437163 L40.96973290640841 31.777344750983293 L31.777344750983296 40.96973290640841 L21.87784981437163 31.070237969796743 A38 38 0 0 1 6.5 37.43995192304605 L6.5 37.43995192304605 L6.500000000000001 51.43995192304605 L-6.499999999999995 51.43995192304606 L-6.499999999999996 37.43995192304606 A38 38 0 0 1 -21.877849814371626 31.070237969796747 L-21.877849814371626 31.070237969796747 L-31.77734475098329 40.96973290640841 L-40.96973290640841 31.777344750983296 L-31.070237969796743 21.87784981437163 A38 38 0 0 1 -37.43995192304605 6.5000000000000036 L-37.43995192304605 6.5000000000000036 L-51.43995192304605 6.500000000000005 L-51.43995192304606 -6.499999999999992 L-37.43995192304606 -6.499999999999994 A38 38 0 0 1 -31.070237969796747 -21.877849814371626 L-31.070237969796747 -21.877849814371626 L-40.96973290640841 -31.77734475098329 L-31.7773447509833 -40.96973290640841 L-21.877849814371633 -31.070237969796743 A38 38 0 0 1 -6.500000000000005 -37.43995192304605 L-6.500000000000005 -37.43995192304605 L-6.500000000000008 -51.43995192304605 L6.499999999999989 -51.43995192304606 L6.499999999999992 -37.43995192304606 A38 38 0 0 1 21.877849814371622 -31.07023796979675 L21.877849814371622 -31.07023796979675 L31.777344750983286 -40.96973290640842 L40.9697329064084 -31.7773447509833 L31.07023796979674 -21.877849814371633 A38 38 0 0 1 37.43995192304605 -6.500000000000007 M0 -19A19 19 0 1 0 0 19 A19 19 0 1 0 0 -19" fill="#ffffff"></path></g></g></g>
</svg>