<?xml version="1.0" encoding="iso-8859-1"?>
<!-- Generator: Adobe Illustrator 19.0.0, SVG Export Plug-In . SVG Version: 6.00 Build 0)  -->
<svg xmlns="http://www.w3.org/2000/svg" xmlns:xlink="http://www.w3.org/1999/xlink" version="1.1" id="Layer_1" x="0px" y="0px" viewBox="0 0 512.079 512.079" style="enable-background:new 0 0 512.079 512.079;" xml:space="preserve" width="512" height="512">
<g>
	<ellipse style="fill:#5DDCF9;" cx="256.04" cy="256.039" rx="248.5" ry="248.539"/>
	<path style="fill:#43C5FF;" d="M389.192,46.164c43.391,44.745,70.113,105.751,70.113,173.009   c0,137.264-111.257,248.539-248.5,248.539c-48.99,0-94.663-14.186-133.153-38.664c45.165,46.575,108.39,75.531,178.387,75.531   c137.243,0,248.5-111.275,248.5-248.539C504.54,167.773,458.529,90.26,389.192,46.164z"/>
	<g>
		<path style="fill:#407FFF;" d="M312.443,160.993h43.745c7.658,0,13.866,6.208,13.866,13.866v131.342    c0,7.658-6.208,13.866-13.866,13.866h-43.745c-7.658,0-13.866-6.208-13.866-13.866V174.859    C298.577,167.201,304.785,160.993,312.443,160.993z"/>
		<path style="fill:#406AEF;" d="M356.189,286.553h-43.747c-7.657,0-13.865-6.208-13.865-13.867V306.2    c0,7.659,6.208,13.867,13.865,13.867h43.747c7.657,0,13.865-6.209,13.865-13.867v-33.514    C370.054,280.345,363.846,286.553,356.189,286.553z"/>
		<path style="fill:#E3FAFF;" d="M142.025,294.578L142.025,294.578c0,13.532,10.969,24.501,24.5,24.501h34.727    c-10.864,27.183-10.818,49.061-10.671,53.614c-0.119,0.822-0.183,1.661-0.183,2.516v1.139c0.73,23.835,8.027,31.132,17.397,34.609    h0c9.608,0,17.397-7.79,17.397-17.4v-1.738c0.096-5.958,8.465-18.249,8.465-18.249l63.843-64.577l1.076-1.326v-13.089V175.231    c0-2.441-1.978-4.419-4.419-4.419H173.967c-8.177,0-15.13,5.969-16.366,14.054C152.873,215.775,142.025,287.488,142.025,294.578z"/>
		<g>
			<path style="fill:#CCF4FF;" d="M294.158,170.811h-26.409v75.226c0,27.767-10.922,54.419-30.406,74.198l-34.513,35.035     c0,0-8.369,12.291-8.465,18.249v1.738c0,3.791-1.226,7.288-3.283,10.146c2.133,16.735,8.654,22.562,16.713,25.553h0     c9.608,0,17.397-7.79,17.397-17.4v-1.738c0.096-5.958,8.465-18.249,8.465-18.249l63.843-64.577l1.076-1.326v-13.089V175.231     C298.577,172.79,296.598,170.811,294.158,170.811z"/>
		</g>
	</g>
</g>
<g>
	<path d="M217.927,494.083c-56.003-8.897-107.344-37.598-144.564-80.816C35.752,369.595,15.04,313.757,15.04,256.04   c0-59.334,21.748-116.352,61.238-160.55c2.76-3.089,2.493-7.83-0.596-10.59c-3.088-2.76-7.83-2.494-10.59,0.596   C23.143,132.447,0.04,193.014,0.04,256.04c0,61.309,22.003,120.623,61.957,167.015c39.532,45.903,94.074,76.389,153.577,85.842   c0.399,0.063,0.794,0.094,1.186,0.094c3.623,0,6.812-2.632,7.398-6.324C224.807,498.576,222.018,494.732,217.927,494.083z"/>
	<path d="M437.059,74.993C388.707,26.633,324.42,0,256.04,0C196.577,0,138.645,20.848,92.915,58.704   c-3.191,2.641-3.636,7.369-0.995,10.56s7.37,3.636,10.56,0.995C145.526,34.625,200.061,15,256.04,15   c64.373,0,124.894,25.072,170.412,70.598c45.52,45.527,70.588,106.057,70.588,170.441s-25.068,124.915-70.588,170.441   c-45.519,45.526-106.039,70.598-170.412,70.598c-4.142,0-7.5,3.358-7.5,7.5s3.358,7.5,7.5,7.5   c68.38,0,132.667-26.633,181.02-74.993c48.352-48.359,74.98-112.656,74.98-181.047S485.411,123.352,437.059,74.993z"/>
	<path d="M312.441,327.567h43.748c11.781,0,21.365-9.585,21.365-21.367v-50.16c0-4.142-3.358-7.5-7.5-7.5s-7.5,3.358-7.5,7.5v50.16   c0,3.511-2.855,6.367-6.365,6.367h-43.748c-3.51,0-6.365-2.856-6.365-6.367V175.23v-0.37c0-3.511,2.855-6.367,6.365-6.367h43.748   c3.509,0,6.365,2.856,6.365,6.367v45.33c0,4.142,3.358,7.5,7.5,7.5s7.5-3.358,7.5-7.5v-45.33c0-11.782-9.584-21.367-21.365-21.367   h-43.748c-7.532,0-14.152,3.929-17.958,9.834c-0.109-0.003-0.216-0.017-0.326-0.017H173.967c-11.97,0-21.971,8.588-23.781,20.42   c-7.144,46.722-15.661,103.878-15.661,110.846c0,17.646,14.355,32.001,32,32.001h24.039c-7.245,22.279-7.635,39.657-7.497,45.732   c-0.113,0.968-0.17,1.94-0.17,2.897l0.003,1.368c0.71,23.185,7.583,35.956,22.285,41.411l1.262,0.468h1.347   c13.729,0,24.897-11.17,24.897-24.9v-1.62c0.145-2.035,3.325-8.376,6.795-13.596l57.152-57.81   C300.551,324.84,306.177,327.567,312.441,327.567z M227.843,368.782l-0.385,0.565c-2.26,3.318-9.642,14.738-9.765,22.349   l-0.001,1.859c0,5.049-3.799,9.228-8.688,9.827c-4.41-1.843-10.443-6.153-11.107-27.152v-1.021c0-0.471,0.036-0.957,0.106-1.444   l0.095-0.653l-0.021-0.66c-0.125-3.897-0.226-24.654,10.14-50.589l4.11-10.284h-45.801c-9.373,0-16.999-7.626-17-17   c0.015-3.622,4.091-34.048,15.489-108.58c0.681-4.455,4.446-7.688,8.953-7.688h117.11v126.511L227.843,368.782z"/>
</g>















</svg>
