<svg viewBox="0 1 511 511.99901" xmlns="http://www.w3.org/2000/svg"><path d="m218.351562 494.007812c-55.992187-8.898437-107.324218-37.59375-144.539062-80.804687-37.605469-43.664063-58.316406-99.496094-58.316406-157.203125 0-59.324219 21.746094-116.332031 61.230468-160.523438 2.757813-3.089843 2.492188-7.832031-.597656-10.589843-3.085937-2.757813-7.828125-2.492188-10.585937.597656-41.945313 46.941406-65.042969 107.5-65.042969 170.515625 0 61.300781 22 120.605469 61.945312 166.988281 39.527344 45.898438 94.0625 76.378907 153.554688 85.832031.398438.0625.792969.09375 1.1875.09375 3.621094 0 6.808594-2.632812 7.394531-6.324218.648438-4.089844-2.140625-7.933594-6.230469-8.582032zm0 0"/><path d="m437.449219 74.980469c-48.34375-48.351563-112.621094-74.980469-180.988281-74.980469-59.453126 0-117.378907 20.84375-163.101563 58.695312-3.191406 2.640626-3.632813 7.367188-.992187 10.558594 2.640624 3.191406 7.367187 3.636719 10.554687.996094 43.042969-35.628906 97.566406-55.253906 153.539063-55.253906 64.363281 0 124.875 25.070312 170.386718 70.589844 45.511719 45.519531 70.574219 106.039062 70.574219 170.414062s-25.0625 124.894531-70.574219 170.414062c-45.515625 45.519532-106.023437 70.585938-170.386718 70.585938-4.140626 0-7.5 3.359375-7.5 7.5s3.359374 7.5 7.5 7.5c68.367187 0 132.644531-26.628906 180.992187-74.984375 48.34375-48.347656 74.96875-112.636719 74.96875-181.015625 0-68.382812-26.625-132.667969-74.972656-181.019531zm0 0"/><path d="m312.851562 327.515625h43.742188c11.777344 0 21.363281-9.582031 21.363281-21.363281v-50.152344c0-4.140625-3.359375-7.5-7.5-7.5s-7.5 3.359375-7.5 7.5v50.152344c0 3.511718-2.855469 6.367187-6.363281 6.367187h-43.742188c-3.507812 0-6.363281-2.855469-6.363281-6.367187v-131.320313c0-3.507812 2.855469-6.363281 6.363281-6.363281h43.742188c3.507812 0 6.363281 2.855469 6.363281 6.363281v45.324219c0 4.140625 3.359375 7.5 7.5 7.5s7.5-3.359375 7.5-7.5v-45.324219c0-11.777343-9.585937-21.363281-21.363281-21.363281h-43.742188c-7.53125 0-14.148437 3.929688-17.953124 9.832031-.109376-.003906-.21875-.015625-.328126-.015625h-120.171874c-11.96875 0-21.964844 8.585938-23.777344 20.417969-7.140625 46.714844-15.65625 103.859375-15.65625 110.828125 0 17.644531 14.351562 31.996094 31.992187 31.996094h24.035157c-7.242188 22.273437-7.632813 39.648437-7.492188 45.722656-.113281.96875-.171875 1.941406-.171875 2.898438l.003906 1.367187c.710938 23.183594 7.582031 35.949219 22.28125 41.40625l1.261719.464844h1.347656c13.726563 0 24.890625-11.167969 24.890625-24.894531v-1.621094c.144531-2.035156 3.324219-8.375 6.796875-13.59375l57.140625-57.800782c3.914063 4.3125 9.539063 7.039063 15.800781 7.039063zm-84.585937 41.210937-.382813.5625c-2.261718 3.320313-9.640624 14.738282-9.765624 22.347657v1.859375c0 5.046875-3.796876 9.226562-8.6875 9.824218-4.40625-1.84375-10.441407-6.152343-11.105469-27.148437v-1.019531c0-.472656.039062-.957032.109375-1.445313l.09375-.652343-.019532-.660157c-.125-3.894531-.226562-24.648437 10.136719-50.582031l4.109375-10.28125h-45.792968c-9.371094 0-16.996094-7.625-17-16.996094.015624-3.621094 4.09375-34.042968 15.488281-108.566406.679687-4.453125 4.445312-7.683594 8.953125-7.683594h117.089844v126.488282zm0 0"/></svg>