<?xml version="1.0" encoding="iso-8859-1"?>
<!-- Generator: Adobe Illustrator 19.0.0, SVG Export Plug-In . SVG Version: 6.00 Build 0)  -->
<svg version="1.1" id="Layer_1" xmlns="http://www.w3.org/2000/svg" xmlns:xlink="http://www.w3.org/1999/xlink" x="0px" y="0px"
	 viewBox="0 0 512 512" style="enable-background:new 0 0 512 512;" xml:space="preserve">
<circle style="fill:#FDDF6D;" cx="256.001" cy="256.001" r="245.994"/>
<path style="fill:#FCC56B;" d="M308.715,465.677c-135.858,0-245.993-110.134-245.993-245.993
	c0-72.584,31.443-137.816,81.444-182.842C64.527,77.562,10.007,160.414,10.007,256c0,135.858,110.134,245.993,245.993,245.993
	c63.274,0,120.962-23.898,164.549-63.149C386.996,455.999,348.987,465.677,308.715,465.677z"/>
<g>
	<circle style="fill:#FFFFFF;" cx="220.829" cy="213.65" r="30.022"/>
	<circle style="fill:#FFFFFF;" cx="389.86" cy="213.65" r="30.022"/>
</g>
<path style="fill:#7F184C;" d="M365.25,423.906c-3.513,0.001-6.921-1.852-8.752-5.14c-9.382-16.842-27.171-27.304-46.425-27.304
	c-18.764,0-36.755,10.568-46.954,27.58c-2.842,4.739-8.989,6.278-13.729,3.437c-4.741-2.842-6.279-8.988-3.437-13.729
	c13.795-23.009,38.366-37.303,64.122-37.303c26.51,0,50.999,14.4,63.911,37.58c2.69,4.828,0.955,10.923-3.872,13.611
	C368.569,423.499,366.897,423.906,365.25,423.906z"/>
<path style="fill:#3FA9F5;" d="M249.276,341.547c0,17.129-13.885,31.013-31.013,31.013s-31.013-13.885-31.013-31.013
	s31.013-61.796,31.013-61.796S249.276,324.42,249.276,341.547z"/>
<path d="M473.268,120.547c-24.641-39.445-59.52-71.47-100.869-92.612c-4.918-2.513-10.949-0.567-13.466,4.354
	c-2.517,4.921-0.567,10.951,4.354,13.467c38.123,19.494,70.284,49.024,93.006,85.396c23.35,37.378,35.693,80.55,35.693,124.848
	c0,130.124-105.862,235.985-235.985,235.985S20.015,386.122,20.015,255.999S125.876,20.015,256,20.015
	c5.527,0,10.007-4.479,10.007-10.007S261.527,0,256,0C114.84,0,0,114.84,0,255.999C0,397.158,114.84,512,256,512s256-114.84,256-256
	C512,207.947,498.606,161.108,473.268,120.547z"/>
<path d="M260.861,213.652c0-22.072-17.957-40.029-40.029-40.029s-40.029,17.957-40.029,40.029s17.957,40.029,40.029,40.029
	S260.861,235.724,260.861,213.652z M200.817,213.652c0-11.036,8.979-20.015,20.015-20.015s20.015,8.979,20.015,20.015
	s-8.979,20.015-20.015,20.015S200.817,224.689,200.817,213.652z"/>
<path d="M429.884,213.652c0-22.072-17.957-40.029-40.029-40.029s-40.029,17.957-40.029,40.029s17.957,40.029,40.029,40.029
	S429.884,235.724,429.884,213.652z M369.84,213.652c0-11.036,8.979-20.015,20.015-20.015s20.015,8.979,20.015,20.015
	s-8.979,20.015-20.015,20.015S369.84,224.689,369.84,213.652z"/>
<path d="M245.951,408.754c-2.842,4.741-1.304,10.887,3.437,13.729c4.739,2.841,10.887,1.301,13.729-3.437
	c10.199-17.013,28.19-27.58,46.954-27.58c19.255,0,37.044,10.462,46.425,27.304c1.832,3.288,5.238,5.141,8.752,5.14
	c1.648,0,3.32-0.408,4.861-1.266c4.829-2.69,6.562-8.784,3.872-13.611c-12.912-23.18-37.401-37.58-63.911-37.58
	C284.315,371.45,259.745,385.745,245.951,408.754z"/>
<path d="M218.263,382.569c22.619,0,41.021-18.402,41.021-41.021c0-5.755-1.749-16.409-16.867-42.359
	c-7.863-13.497-15.607-24.675-15.933-25.145c-1.869-2.694-4.941-4.301-8.221-4.301c-3.28,0-6.35,1.607-8.221,4.301
	c-0.326,0.47-8.07,11.647-15.933,25.145c-15.119,25.95-16.867,36.604-16.867,42.359
	C177.241,364.167,195.644,382.569,218.263,382.569z M218.263,297.897c11.17,17.709,21.006,36.702,21.006,43.651
	c0,11.583-9.424,21.006-21.006,21.006s-21.006-9.424-21.006-21.006C197.256,334.599,207.093,315.606,218.263,297.897z"/>
<circle cx="331.964" cy="22.683" r="10.007"/>
<g>
</g>
<g>
</g>
<g>
</g>
<g>
</g>
<g>
</g>
<g>
</g>
<g>
</g>
<g>
</g>
<g>
</g>
<g>
</g>
<g>
</g>
<g>
</g>
<g>
</g>
<g>
</g>
<g>
</g>
</svg>
