<?xml version="1.0" encoding="iso-8859-1"?>
<!-- Generator: Adobe Illustrator 19.0.0, SVG Export Plug-In . SVG Version: 6.00 Build 0)  -->
<svg version="1.1" id="Layer_1" xmlns="http://www.w3.org/2000/svg" xmlns:xlink="http://www.w3.org/1999/xlink" x="0px" y="0px"
	 viewBox="0 0 512 512" style="enable-background:new 0 0 512 512;" xml:space="preserve">
<g>
	<g>
		<path d="M473.268,120.547c-24.641-39.445-59.52-71.47-100.869-92.612c-4.918-2.513-10.949-0.567-13.466,4.354
			c-2.516,4.921-0.567,10.951,4.354,13.467c38.123,19.494,70.284,49.024,93.006,85.396c23.35,37.378,35.693,80.55,35.693,124.848
			c0,130.124-105.862,235.985-235.985,235.985S20.015,386.122,20.015,255.999S125.876,20.015,256,20.015
			c5.527,0,10.007-4.479,10.007-10.007C266.007,4.479,261.527,0,256,0C114.84,0,0,114.84,0,255.999C0,397.158,114.84,512,256,512
			s256-114.84,256-256C512,207.947,498.606,161.108,473.268,120.547z"/>
	</g>
</g>
<g>
	<g>
		<path d="M220.832,173.622c-22.072,0-40.029,17.957-40.029,40.029c0,22.072,17.957,40.029,40.029,40.029
			c22.072,0,40.029-17.957,40.029-40.029C260.861,191.579,242.904,173.622,220.832,173.622z M220.832,233.666
			c-11.036,0-20.015-8.977-20.015-20.015c0-11.036,8.979-20.015,20.015-20.015c11.036,0,20.015,8.979,20.015,20.015
			C240.846,224.688,231.868,233.666,220.832,233.666z"/>
	</g>
</g>
<g>
	<g>
		<path d="M389.854,173.622c-22.072,0-40.029,17.957-40.029,40.029c0,22.072,17.957,40.029,40.029,40.029
			s40.029-17.957,40.029-40.029C429.884,191.579,411.927,173.622,389.854,173.622z M389.854,233.666
			c-11.036,0-20.015-8.977-20.015-20.015c0-11.036,8.979-20.015,20.015-20.015s20.015,8.979,20.015,20.015
			C409.869,224.688,400.89,233.666,389.854,233.666z"/>
	</g>
</g>
<g>
	<g>
		<path d="M373.981,409.031c-12.912-23.18-37.401-37.58-63.911-37.58c-25.755-0.001-50.325,14.293-64.119,37.302
			c-2.842,4.741-1.304,10.887,3.437,13.729c4.74,2.841,10.887,1.301,13.729-3.437c10.199-17.013,28.19-27.58,46.954-27.58
			c19.255,0,37.045,10.462,46.425,27.304c1.832,3.288,5.239,5.141,8.752,5.14c1.648,0,3.32-0.408,4.861-1.266
			C374.938,419.952,376.671,413.859,373.981,409.031z"/>
	</g>
</g>
<g>
	<g>
		<path d="M242.417,299.189c-7.863-13.497-15.607-24.675-15.933-25.145c-1.869-2.694-4.941-4.301-8.221-4.301
			s-6.35,1.607-8.221,4.301c-0.326,0.47-8.07,11.647-15.933,25.145c-15.119,25.95-16.867,36.604-16.867,42.359
			c-0.001,22.619,18.401,41.021,41.021,41.021s41.021-18.402,41.021-41.021C259.284,335.793,257.534,325.139,242.417,299.189z
			 M218.263,362.554c-11.582,0-21.006-9.424-21.006-21.006c-0.001-6.949,9.837-25.942,21.006-43.651
			c11.17,17.709,21.006,36.702,21.006,43.651C239.269,353.131,229.845,362.554,218.263,362.554z"/>
	</g>
</g>
<g>
	<g>
		<circle cx="331.964" cy="22.683" r="10.007"/>
	</g>
</g>
<g>
</g>
<g>
</g>
<g>
</g>
<g>
</g>
<g>
</g>
<g>
</g>
<g>
</g>
<g>
</g>
<g>
</g>
<g>
</g>
<g>
</g>
<g>
</g>
<g>
</g>
<g>
</g>
<g>
</g>
</svg>
