<?xml version="1.0" encoding="utf-8"?>
<!-- Generator: Adobe Illustrator 18.0.0, SVG Export Plug-In . SVG Version: 6.00 Build 0)  -->
<!DOCTYPE svg PUBLIC "-//W3C//DTD SVG 1.1//EN" "http://www.w3.org/Graphics/SVG/1.1/DTD/svg11.dtd">
<svg version="1.1" id="Calque_1" xmlns="http://www.w3.org/2000/svg" xmlns:xlink="http://www.w3.org/1999/xlink" x="0px" y="0px"
	 viewBox="-91.1 83.3 1024 1024" enable-background="new -91.1 83.3 1024 1024" xml:space="preserve">
<linearGradient id="SVGID_1_" gradientUnits="userSpaceOnUse" x1="1026.4718" y1="944.9933" x2="-184.8083" y2="245.6605">
	<stop  offset="0" style="stop-color:#FF8333"/>
	<stop  offset="1" style="stop-color:#FF5633"/>
</linearGradient>
<rect x="-91.1" y="83.3" fill="url(#SVGID_1_)" width="1023.8" height="1024.1"/>
<g id="Calque_1_1_">
	
		<image overflow="visible" opacity="0.75" width="1077" height="774" xlink:href="7F647150.png"  transform="matrix(1 0 0 1 -110.0394 206.5107)">
	</image>
	<g>
		<g>
			<g>
				<linearGradient id="SVGID_2_" gradientUnits="userSpaceOnUse" x1="-24.5974" y1="592.8757" x2="566.3564" y2="592.8757">
					<stop  offset="0" style="stop-color:#FF7733"/>
					<stop  offset="1" style="stop-color:#FF4933"/>
				</linearGradient>
				<path fill="#FFCD33" stroke="url(#SVGID_2_)" stroke-width="4" stroke-miterlimit="10" d="M63.9,846.1
					c11.7-12.8,22.3-24.7,33-36.3c18.1-19.7,19.1-34.1,2.7-55.4C82,731.8,64.2,709.3,47.5,686c-25.9-36.1-47.3-74.5-60-117.1
					C-27.9,517-26.6,465.5-1.9,416.4c17.9-35.6,44.7-63.2,80.8-81.5c45.6-23.3,94.4-34.1,144.8-38.9c63.2-6,125.3-0.4,186.1,18
					c38.7,11.7,75.6,27.8,108.7,51.6c7.3,5.2,14.9,10.6,19.5,19.5c-6.3,1.5-11.7-0.4-17.2-1.3c-10.1-1.7-18.7,0.9-20,6.2
					c-1.3,5,5.8,11,16.2,13.1c9.8,2.1,19.7,3.4,29.7,3.5c8.4,0.1,17.8,10.2,17.7,18.6c-0.1,3.8-2.8,4.2-5.5,4.7
					c-7.2,1.4-14.2,3.2-21,6.2c-21.3,9.7-31.3,28.2-32.7,49.6c-2.6,38.2-1.6,76.8-4,115.1c-1.7,28.1-1.2,56.3-2,84.4
					c-0.5,20,4.7,40.1,25.7,50.6c5.2,2.6,2.2,5.1,0.3,7.5c-11.6,14.2-23.1,28.6-35.1,42.5c-38.1,44-84.8,75.6-139.3,96.2
					c-45.5,17-89.2,11.3-132.2-8.3c-24.3-11-43.7-28.7-63.6-45.8c-2.1-1.7-4.5-3.2-6.2-5.1c-5.6-6.2-11.5-5.2-18.4-2.2
					c-18,8-36.3,15.6-54.4,23.4C72.7,845,69.5,846.7,63.9,846.1z M378,562.8c1.1,40.3-2.5,81.4-1.7,122.5c0,1.6-0.2,3.3-0.3,4.8
					c-1.5,25.7-3.5,51.3-2.6,76.9c0.2,7.9,1.2,15.6,2.3,23.4c0.5,3.7,2.3,7.5,6.8,8.2c3.9,0.5,5.4-3,7.2-5.6
					c5.1-7.8,9.4-16.1,10.6-25.2c4.2-32.7,8.2-65.5,11.8-98.2c1.6-14.6,3.5-29,12.1-41.5c2.3-3.3,5.1-5.8,9.4-5.1
					c4.5,0.8,5.8,4.4,6.7,8.2c2.1,9.4,1.4,18.9,0.5,28.3c-3.2,35.5-9,70.9-4.2,106.7c1.6,12.1,0.8,25,9.4,35.4c4.2,5,9,5.7,13.8,1.1
					c3.1-2.8,4.5-6.7,5.7-10.6c3.1-10.2,4.2-20.7,4.9-31.1c2-26.4,4.3-52.8,5.4-79.2c1.5-37.5,3.9-75,6.1-112.6
					c1.2-20.8,3.1-41.5,4.3-62.3c1.4-24,3-48,3.7-72c0.4-11.9-6.2-19.3-15.7-20.1c-11.3-0.9-18.9,5.6-21.4,17.4
					c-3.5,16.4-6.8,32.9-7.4,49.7c-0.8,17.8-3.5,35.4-1.3,53.4c1.5,12.5,1.9,25.5-1.4,37.9c-3,11.5-11,15.7-22.2,12.5
					c-8.6-2.5-9.7-9.1-9.9-16.4c-1.1-37.4,2.3-74.5,5.9-111.7c1.3-14.1,0.8-28.1-2.6-42c-2.5-10.5-12.1-13.7-20.4-7.2
					c-5.4,4.2-8.5,9.6-10.2,16.1c-4.9,18.7-7.1,37.8-6.3,57C377.7,508.3,378.5,535.1,378,562.8z M326.6,353
					c-21.4,0.1-37.7-0.3-53.9,1.7c-15.3,2-30.6,4.2-44.6,11c-8.9,4.4-12.9,12.3-11.6,19.6c1.2,6.7,7.9,12,17.5,13.3
					c8.9,1.3,17.8,1.7,26.6,3.4c14.9,2.7,29,7.4,36.9,21.9c5.8,10.5,10.4,21.5,12,33.4c7.6,55.2,9.8,110.8,13,166.4
					c2,34.8,1.9,69.7,5.4,104.4c1.6,16.1,2.5,32.5,7.9,47.9c1.7,4.9,4.2,10.9,9.6,10.8c6.3,0,8-6.7,9-11.9c2.3-11.1,3.8-22.4,4-33.8
					c0.5-28.3,1.1-56.7,0.2-85c-1.1-34.6-0.3-69.3-0.3-103.9c0-14.9,0.9-29.8-0.4-44.6c-1.9-22.7-0.3-45.4,0.9-67.9
					c1.4-27.3,17.7-43.6,44.4-47.8c6.7-1.1,13.3-2.1,20-3.2c6.8-1.1,11.9-4.8,12.8-11.7c0.8-6.3-4.5-9.4-9.7-11.5
					c-4.3-1.6-8.6-3.2-13.1-4C382.8,355.6,352.4,351.4,326.6,353z M145.4,490.6c0.2-20.7-7-38-21.1-53c-15.1-16.1-32.7-24.5-55-21.1
					c-30.9,4.7-52.9,23.1-71.1,47c-2.7,3.6-4.7,8.1-4.3,12.9c1,10.7,2.1,21.4,5.1,31.9c6.8,23.7,15.6,46.6,24.3,69.6
					c15.4,41.3,32.8,81.7,53.3,120.8c4.2,7.8,8,16.1,14.4,22.4c1.7,1.7,3.6,3.6,6.3,2.7c3.1-0.9,4-3.4,4.3-6.2
					c0.2-2.4,0.1-4.9,0.3-7.3c1.4-21.4-4.7-41.9-7.6-62.7c-3.6-25.7-8.2-51.3-12.7-76.8c-1.1-5.9,0.5-9.7,5.8-12.8
					c9.5-5.6,18.8-11.8,28.2-17.6C134.3,529.2,145.9,513.4,145.4,490.6z M239.9,601.7c2,4.3,3.4,6.7,4,9.2
					c6.4,23.2,12.7,46.4,19,69.6c6.6,24.3,12.8,48.6,24.2,71.4c2.1,4.2,4.7,8.7,9.9,8.2c5.6-0.5,6.2-6,7.4-10.5
					c0.3-1,0.3-2.2,0.4-3.2c3.9-33.8,0.5-67.5-0.7-101.3c-1.4-38.6-4-77.2-5.9-115.7c-0.9-18.4-1.9-36.7-5.1-54.9
					c-1.3-7.2-2.7-14.4-7-20.7c-1.3-1.9-2.6-4.6-5.6-4c-3.2,0.5-4.2,3.4-4.6,6.1c-1.4,9.4-2.5,18.7-1.4,28.3
					c1.2,10.7,1.7,21.5,2.5,32.3c2.6,36.6,5.1,73.3,7.8,109.9c0.5,8.4,0.8,16.7-2.5,25.6c-4.4-4.9-5.5-9.9-6.9-14.9
					c-9.8-33.8-16.5-68.3-24.6-102.5c-5.5-23.2-11.3-46.2-18.8-68.8c-1.5-4.7-3.4-11.5-9.2-10.9c-5.7,0.5-5,7.8-5.5,12.2
					c-1.5,17.5-3,35-3.4,52.6c-0.5,27.5,0.3,55.2,1.1,82.7c1.2,46.6,3.6,92.9,11,138.9c1.3,8.1,2.7,16,5.6,23.6
					c1,2.6,2.3,5.1,5.6,4.9c3.6-0.3,3.8-3.3,4-6c1.2-14.1-0.1-28.1-0.7-42.1c-1.1-31.6-6.3-62.9-5.9-94.6
					C235.3,619.2,236.1,611.2,239.9,601.7z M205.8,641.1c1.3-22.4-2.8-46.1-9.6-69.3c-3.9-13.4-9.3-26.8-20.1-36.5
					c-14.6-13.2-28.2-10.4-38.4-0.4c-7.6,7.5-12.3,17.6-15.3,28.2c-13.1,46.6-9.5,92.7,5.1,138c5,15.5,11.4,31,24.4,42.4
					c9.4,8.2,22.1,7.5,30.1-2.2c5-6.1,9.4-12.7,11.7-20.2C201.6,695.8,206.7,669.9,205.8,641.1z"/>
				<linearGradient id="SVGID_3_" gradientUnits="userSpaceOnUse" x1="522.3428" y1="579.3149" x2="880.9861" y2="579.3149">
					<stop  offset="0" style="stop-color:#FF7733"/>
					<stop  offset="1" style="stop-color:#FF4933"/>
				</linearGradient>
				<path fill="#FFCD33" stroke="url(#SVGID_3_)" stroke-width="4" stroke-miterlimit="10" d="M878.4,515.9
					c3.5,32.7-9.8,65.1-23.3,97.4c-14,33.5-30.7,65.7-52.8,94.7c-10.3,13.6-20.9,26.8-34.6,37.4c-21.5,16.5-54.2,12.5-69.9,0.1
					c-5.8-4.5-9.4-10.1-11.7-17c-7.8-23.5-8-47.9-9.3-72.1c-1.1-19.1-1.6-38.4-6.1-57.2c-1.9-7.8-5.4-13.4-12.8-17.6
					c-17.5-9.8-35.5-18.4-53.9-26.4c-5.4-2.4-7.4-1.4-8.5,4.7c-5.1,27.9-9.9,56-19.2,82.9c-3.9,11.5-7.6,23.1-12.7,34.2
					c-1.9,4.2-3.4,5.2-6.4,0.9c-3-4.3-6.9-7.6-11.7-9.7c-15.4-6.8-20.8-19.6-21-35.3c-0.1-8.1-0.2-16.3,0-24.4
					c0.4-13.8,7.4-22.1,21.1-24.9c10.2-2.1,19.8-5.4,27.5-12.7c8.5-8,8.4-14.2-0.7-21.3c-6.9-5.4-15-8.7-22.8-12.2
					c-8.3-3.7-12.7-9.2-12.3-18.8c0.3-10.1,2.3-19.9,3.9-29.7c1.1-7,5.1-10.9,11.5-13.3c6.8-2.5,13.8-2.6,20.8-1.5
					c5.5,0.8,8.3,4,9.4,9.6c3.7,18.6,7.8,37,11.4,55.6c1.2,6.4,4,9.3,10.8,9c11.6-0.4,23.3-0.8,34.9-0.1c10.3,0.7,16-4.3,20.7-12.5
					c16.3-28.7,33.2-57,52.6-83.8c11.9-16.5,24.2-32.9,43.8-41.1c47.3-19.7,94.1-4.5,113.5,45.8c2.4,6.3,4.8,12.7,6.1,19.3
					C878.7,487.9,878.5,500,878.4,515.9z M738.4,624.1c0.1,13.8-0.5,27.6,3.2,41.2c2.1,7.8,6.1,8.6,12.1,3.3
					c8.2-7.2,12.1-17.3,17.2-26.4c16.8-30.6,29.8-62.9,44.6-94.6c10.2-21.9,18.9-44,21.4-68.4c2-19.7-1.5-35.7-25.4-43.2
					c-22.2-6.8-37.7-1.1-47.2,20.1c-9.3,20.9-14.9,42.9-19.1,65.2C738.8,555.3,740.5,589.9,738.4,624.1z M759.7,711.7
					c-0.1-12.2-9.6-20.8-23.1-20.7c-12.9,0.1-25.1,13.8-25,27.9c0.1,9.3,14.9,21.7,25.9,21.9C747.7,741,759.9,725.2,759.7,711.7z"/>
				<linearGradient id="SVGID_4_" gradientUnits="userSpaceOnUse" x1="46.4521" y1="492.1492" x2="95.5777" y2="492.1492">
					<stop  offset="0" style="stop-color:#FF7733"/>
					<stop  offset="1" style="stop-color:#FF4933"/>
				</linearGradient>
				<path fill="#FFCD33" stroke="url(#SVGID_4_)" stroke-width="4" stroke-miterlimit="10" d="M48.5,486.4
					c-0.1-11.7,5.7-21.3,13.9-23.4c9.6-2.4,21.2,4.2,26.2,14.8c9.9,21.1,5.1,34.9-14.6,42.7c-6.9,2.7-11.9,1.3-15.8-5.1
					C52.5,506.2,48.6,494.6,48.5,486.4z"/>
				<linearGradient id="SVGID_5_" gradientUnits="userSpaceOnUse" x1="132.188" y1="634.6118" x2="184.9731" y2="634.6118">
					<stop  offset="0" style="stop-color:#FF7733"/>
					<stop  offset="1" style="stop-color:#FF4933"/>
				</linearGradient>
				<path fill="#FFCD33" stroke="url(#SVGID_5_)" stroke-width="4" stroke-miterlimit="10" d="M134.3,621.7
					c1-18.2,0.8-36.8,10.2-53.4c3.7-6.4,8.1-11.9,16.5-10.4c7.8,1.4,11.7,7.2,13.9,14.2c7.6,24.3,9.4,49.1,7.2,74.3
					c-1.2,13.8-1.6,27.4-4.9,41c-1.3,5.6-3.1,10.9-5.7,16.1c-5.5,10.5-15.3,11-21.4,1.1c-7.2-11.7-10.1-25-11.8-38.4
					C136.4,651.3,133.5,636.6,134.3,621.7z"/>
			</g>
		</g>
	</g>
</g>
<g id="Vector" display="none">
	<g id="_x21_" display="inline">
		<path fill="#FFC428" d="M644.9,587.3c-11.1-13.1-68.9-35.4-68.9-35.4s50.8,2.4,56.4-3.1c17-16.5,47-97.5,90.1-121.9
			c34.6-19.6,73.2-11.1,96,17c24.8,30.5,21.5,96.7,15.8,116.7c-16.5,57-51.6,131.4-93.3,166.8c-28.3,24-69.4,17.7-79.8-16.5
			C651.5,678.6,655.8,600.1,644.9,587.3z"/>
		<path fill="#FFFFFF" d="M684.4,711.3c-4.2-11.8,7.6-25.8,14.4-30.2c7.4-4.8,25.2-0.5,30.2,6.4c5.3,7.3,4.4,28.9-8.4,37.1
			C704.8,734.6,687.8,720.6,684.4,711.3z"/>
		<path fill="#FFFFFF" d="M717.3,666.5c-14.5,1.6-4.5-129.1-3.7-136.1c1.4-12.4,17.7-71.1,27.5-78.8c10.5-8.3,15.8-9.1,31.8-6.3
			c14.3,2.5,28.1,15.9,29.3,21.7c1.8,8.3,1.6,37.7-19.2,84C767.2,586.5,735.1,664.6,717.3,666.5z"/>
	</g>
	<g id="Ponthé_-_copie" display="inline">
		<path fill="#FFC428" d="M91.7,825.6c0,0,37-40.3,42.7-48.7c4.8-7.3,3.6-25.7-8.2-38.1C87.3,697.8,35,626.4,17.3,545.1
			c-7.3-33.2-2.8-86.8,18-119c24.7-38.3,54.5-65.2,88-79.2c54.9-22.9,124.2-31.6,185.3-28c50.8,3,126.8,19.2,175.3,48.3
			c24,14.5,53.5,34.5,66,68.3c10.4,28.1,29.6,103,29.3,117.7c-0.9,55.6-27.7,125.7-60.1,170.6c-7.1,9.9-55.3,72.8-102.5,101.5
			c-33.5,20.4-91,53.9-155.5,33c-62.9-20.4-89.4-61.8-96.6-61.7C153.2,796.7,91.7,825.6,91.7,825.6z"/>
	</g>
	<g id="Ponthé" display="inline">
		<path fill="#FFC428" d="M91.7,825.6c0,0,37-40.3,42.7-48.7c4.8-7.3,3.6-25.7-8.2-38.1C87.3,697.8,35,626.4,17.3,545.1
			c-7.3-33.2-2.8-86.8,18-119c24.7-38.3,54.5-65.2,88-79.2c54.9-22.9,124.2-31.6,185.3-28c50.8,3,126.8,19.2,175.3,48.3
			c24,14.5,53.5,34.5,66,68.3c10.4,28.1,29.6,103,29.3,117.7c-0.9,55.6-27.7,125.7-60.1,170.6c-7.1,9.9-55.3,72.8-102.5,101.5
			c-33.5,20.4-91,53.9-155.5,33c-62.9-20.4-89.4-61.8-96.6-61.7C153.2,796.7,91.7,825.6,91.7,825.6z"/>
		<path fill="#FFFFFF" d="M489.3,406.4c-0.3-3.2,2.2-6.8,9.4-8.1c21.9-3.8,49.7,13.1,53.1,14.5c24.5,9.6-25.9,11.7-48.6,5.3
			C493.6,415.4,489.8,411.3,489.3,406.4z"/>
		<path fill="#FFFFFF" d="M340.4,759.2c-16.6-38.1-15.2-278.3-29.4-311.3c-17.6-40.9-55.1-26.9-68.5-33
			c-22.7-10.4-7.5-31.1,2.1-35.1c48-20,164.4-6.8,182,1.5c11.6,5.5,14.4,16.5,2.3,22.6c-11.6,5.9-46.6,3.6-59.4,27.8
			c-17.3,32.7,3.1,304.1-7.9,327.1C349.3,784.7,343.8,767.2,340.4,759.2z"/>
		<path fill="#FFFFFF" d="M566.9,561.6c0.5,11.9-18.4,20.3-34.6,22.7c-7.1,1.1-10.2,6.1-11.9,8.6c-5.6,8-7.1,34.7-1.1,52.7
			c4.7,14.2,33,13.4,27.6,31.8c-3.2,10.9-10.1,43.4-21.8,47.3c-16.4,5.5-27.6-17.1-30.4-23.1c-3.5-7.4-4.5-11.7-4.5-28.6
			c0-49.5,2.4-123.9,4.8-173.5c0.6-13.3,3.5-25.4,9.7-35.5c10.2-16.8,37.3-26.5,63-22.3c9.4,1.5,18,30.3,21.4,39.3
			c4.2,10.9-46.6-3.1-54.8,8.9c-6.9,10.1-8.3,35.4-6,41.8C530.5,538,566.3,547.3,566.9,561.6z"/>
	</g>
</g>
</svg>
